<svg width="16" height="10" viewBox="0 0 16 10" fill="none" xmlns="http://www.w3.org/2000/svg">
<path d="M2.82672 1.38668L8.00005 6.56001L13.1734 1.38668C13.2968 1.26323 13.4434 1.16531 13.6047 1.09851C13.7659 1.0317 13.9388 0.997314 14.1134 0.997314C14.288 0.997314 14.4608 1.0317 14.6221 1.09851C14.7834 1.16531 14.9299 1.26323 15.0534 1.38668C15.1768 1.51012 15.2747 1.65667 15.3416 1.81795C15.4084 1.97924 15.4427 2.1521 15.4427 2.32668C15.4427 2.50125 15.4084 2.67411 15.3416 2.8354C15.2747 2.99669 15.1768 3.14323 15.0534 3.26668L8.93338 9.38668C8.81003 9.51028 8.66351 9.60834 8.50221 9.67525C8.34092 9.74216 8.16801 9.7766 7.99338 9.7766C7.81876 9.7766 7.64585 9.74216 7.48455 9.67525C7.32325 9.60834 7.17673 9.51028 7.05338 9.38668L0.933382 3.26668C0.809777 3.14332 0.711714 2.99681 0.644805 2.83551C0.577897 2.67421 0.543457 2.5013 0.543457 2.32668C0.543457 2.15205 0.577897 1.97914 0.644805 1.81784C0.711714 1.65655 0.809777 1.51003 0.933382 1.38668C1.45338 0.880009 2.30672 0.866676 2.82672 1.38668Z" fill="#262626"/>
</svg>
